<svg width="15" height="15" fill="none" xmlns="http://www.w3.org/2000/svg"><path d="M11.404 9.923c-.49-.484-1.102-.484-1.589 0-.371.368-.743.736-1.108 1.111-.1.103-.184.125-.306.056-.24-.13-.496-.237-.727-.38-1.077-.678-1.98-1.549-2.778-2.529-.397-.487-.75-1.008-.996-1.595-.05-.119-.04-.197.056-.293.372-.36.734-.728 1.1-1.096.508-.512.508-1.111-.004-1.626-.29-.294-.58-.58-.87-.874-.3-.3-.597-.603-.9-.9-.49-.477-1.102-.477-1.589.004C1.32 2.169.96 2.547.58 2.909c-.353.334-.53.743-.568 1.22-.06.778.131 1.511.4 2.226.549 1.48 1.385 2.794 2.4 3.998a14.854 14.854 0 0 0 4.92 3.85c.86.417 1.753.739 2.724.792.668.038 1.249-.131 1.714-.652.318-.356.677-.68 1.014-1.021.5-.506.503-1.117.006-1.617-.593-.596-1.189-1.19-1.785-1.782ZM10.807 7.435l1.152-.197A5.147 5.147 0 0 0 10.52 4.46a5.12 5.12 0 0 0-2.934-1.463l-.162 1.158a3.972 3.972 0 0 1 2.272 1.133c.587.586.971 1.33 1.111 2.147ZM12.609 2.428A8.493 8.493 0 0 0 7.739 0l-.162 1.158a7.364 7.364 0 0 1 4.208 2.098 7.359 7.359 0 0 1 2.063 3.98L15 7.038a8.555 8.555 0 0 0-2.391-4.61Z" fill="#122659"/></svg>